# xmcd
#
# Track frame offsets:
# 150
# 19084
# 42324
# 57994
# 75668
# 94782
# 111839
# 127911
# 150466
# 177345
# 193352
# 212063
#
# Disc length: 3078 seconds
#
#
# Revision: 0
# Processed by: cddbd v1.5.1PL2 Copyright (c) Steve Scherf et al.
# Submitted via: FreeRIP 2.40 
#
DISCID=9e0c040c
DTITLE=Jonny Lang - Lie To Me
DYEAR=1900
DGENRE=Blues
TTITLE0=Lie to Me
TTITLE1=Darker Side
TTITLE2=Matchbox
TTITLE3=Missing Your Love
TTITLE4=Good Morning Little Schoolgirl
TTITLE5=Still Wonder
TTITLE6=Back For A Taste Of Your Love
TTITLE7=When I Come To You
TTITLE8=A Quitter Never Wins
TTITLE9=Hit The Ground Running
TTITLE10=Rack 'Em Up
TTITLE11=There's Gotta Be A Chang
EXTD=
EXTT0=
EXTT1=
EXTT2=
EXTT3=
EXTT4=
EXTT5=
EXTT6=
EXTT7=
EXTT8=
EXTT9=
EXTT10=
EXTT11=
PLAYORDER=
